<svg id="BTM" data-name="BTM" xmlns="http://www.w3.org/2000/svg" viewBox="0 0 841.89 595.28"> <defs> <style> .cls-1, .cls-2 { fill: #59108a; } .cls-2, .cls-3 { fill-rule: evenodd; } .cls-3 { fill: #4ec409; } </style> </defs> <g> <path class="cls-1" d="M300.52,257c7.36,0,12.34,3.03,12.34,10.38,0,5.1-1.72,7.36-4.81,9.14,4.09,1.78,5.75,4.51,5.75,9.49,0,8.25-4.69,11.63-12.99,11.63h-14.06v-40.64h13.76Zm-7.12,5.7v11.45h7.18c3.8,0,5.52-2.43,5.52-5.99,0-3.74-1.84-5.46-5.58-5.46h-7.12Zm0,16.97v12.28h7.36c4.27,0,6.23-2.08,6.23-6.41,0-4.09-2.08-5.87-6.35-5.87h-7.24Z"/> <path class="cls-1" d="M340.27,291.82l.18,4.63s-4.39,1.78-9.97,1.78c-8.37,0-12.04-4.57-12.04-14.59,0-9.31,3.38-16.26,12.28-16.26,6.94,0,10.92,2.49,10.92,8.78,0,7.42-4.92,9.02-14.3,9.02h-2.43v.95c0,3.98,2.02,6.59,6.05,6.59s9.31-.89,9.31-.89Zm-12.93-11.45c5.52,0,7.95-.65,7.95-4.15,0-2.79-1.54-3.68-4.57-3.68-4.21,0-5.7,3.2-5.75,7.83h2.37Z"/> <path class="cls-1" d="M365.84,273.67s-5.7-.83-9.61-.83c-2.08,0-4.09,.95-4.09,3.26s1.25,2.97,5.16,3.92c6.17,1.48,9.79,2.49,9.79,8.78,0,7.36-4.33,9.49-11.15,9.49-4.75,0-10.26-1.48-10.26-1.48l.36-4.92s6.53,.95,9.31,.95c3.8,0,5.28-.89,5.28-3.44s-1.48-2.91-5.16-3.68c-6.23-1.36-9.73-3.08-9.73-9.08,0-6.7,5.04-9.25,10.09-9.25,5.46,0,10.26,1.36,10.26,1.36l-.24,4.92Z"/> <path class="cls-1" d="M380.08,273.49v15.01c0,2.61,.53,4.33,2.73,4.33,1.9,0,4.45-.36,4.45-.36l.3,4.92s-3.62,.89-5.64,.89c-6.64,0-8.25-3.38-8.25-9.43v-15.37h-3.38v-5.52h3.38v-8.13h6.41v8.13h7.24v5.52h-7.24Z"/> <path class="cls-1" d="M402.15,257h26.16v5.75h-9.67v34.88h-6.58v-34.88h-9.91v-5.75Z"/> <path class="cls-1" d="M429.15,267.97h6.35v4.33s3.74-3.86,8.37-4.98v6.7c-3.92,.95-8.31,3.68-8.31,3.68v19.93h-6.41v-29.66Z"/> <path class="cls-1" d="M446.77,283.28c0-9.14,2.31-15.96,11.98-15.96,3.97,0,12.04,1.07,12.04,1.07v21.3c0,2.08,.3,7.89,.3,7.89l-6.41,.24s-.3-2.37-.3-4.33c0,0-2.73,4.81-7.77,4.81-7.24,0-9.85-5.1-9.85-15.01Zm6.53,0c0,5.7,.83,9.55,4.75,9.55s6.35-5.04,6.35-5.04v-14.53s-3.62-.47-5.04-.47c-4.75,0-6.05,3.56-6.05,10.5Z"/> <path class="cls-1" d="M481.66,267.97l5.4,24.32h1.42l5.4-24.32h6.35l-7.3,29.66h-10.32l-7.3-29.66h6.35Z"/> <path class="cls-1" d="M524.73,291.82l.18,4.63s-4.39,1.78-9.97,1.78c-8.37,0-12.04-4.57-12.04-14.59,0-9.31,3.38-16.26,12.28-16.26,6.94,0,10.92,2.49,10.92,8.78,0,7.42-4.92,9.02-14.3,9.02h-2.43v.95c0,3.98,2.02,6.59,6.05,6.59s9.31-.89,9.31-.89Zm-12.93-11.45c5.52,0,7.95-.65,7.95-4.15,0-2.79-1.54-3.68-4.57-3.68-4.21,0-5.7,3.2-5.75,7.83h2.37Z"/> <path class="cls-1" d="M531.56,255.63h6.47v42h-6.47v-42Z"/> <path class="cls-1" d="M558.79,257h11.21l7.95,32.63,7.89-32.63h11.15v40.64h-6.17v-34.88h-1.01l-7.83,33.22h-8.13l-7.89-33.22h-.95v34.88h-6.23v-40.64Z"/> <path class="cls-1" d="M627.67,282.69c0,8.9-2.14,15.6-12.16,15.6s-12.16-6.7-12.16-15.6,2.61-15.31,12.16-15.31,12.16,6.35,12.16,15.31Zm-6.17,0c0-6.05-1.13-9.85-5.99-9.85s-5.99,3.8-5.99,9.85,.71,10.14,5.99,10.14,5.99-4.21,5.99-10.14Z"/> <path class="cls-1" d="M633.49,297.64v-29.66h6.29l.06,3.56s3.08-4.21,7.77-4.21c6.88,0,9.43,5.16,9.43,11.92v18.39h-6.41v-16.73c0-5.75-1.13-8.13-4.57-8.13-3.2,0-6.17,4.39-6.17,4.39v20.47h-6.41Z"/> <path class="cls-1" d="M684.33,291.82l.18,4.63s-4.39,1.78-9.97,1.78c-8.37,0-12.04-4.57-12.04-14.59,0-9.31,3.38-16.26,12.28-16.26,6.94,0,10.92,2.49,10.92,8.78,0,7.42-4.92,9.02-14.3,9.02h-2.43v.95c0,3.98,2.02,6.59,6.05,6.59s9.31-.89,9.31-.89Zm-12.93-11.45c5.52,0,7.95-.65,7.95-4.15,0-2.79-1.54-3.68-4.57-3.68-4.21,0-5.7,3.2-5.75,7.83h2.37Z"/> <path class="cls-1" d="M694.6,267.97l5.46,24.32h1.3l5.58-24.32h6.17l-10.38,42.42h-6.05l3.44-12.76h-4.69l-7.12-29.66h6.29Z"/> </g> <g> <path class="cls-2" d="M152.76,239.12c-11.24,12.03-16.89,27.28-17.06,42.54,2.91,4.76,6.98,7.41,11.66,8.53-2.78-17.18,2.13-35.41,14.93-49.11,21.6-23.12,57.62-24.7,81.16-3.85-.39-.38-.79-.76-1.19-1.14-25.56-23.88-65.63-22.52-89.51,3.03"/> <path class="cls-3" d="M136.47,295.03c14.24,17.87,42.99-3.21,52.88-16.61-2.21-2.47-4.42-4.94-6.62-7.4l27.06-6.65-2.58,26.39-6.87-4.71c-16.27,26.8-60.05,34.97-63.87,8.99"/> <path class="cls-2" d="M143.7,315.51c36.16,43.06,82.64-7.59,105.5-33.28l8.61,5.37,1.65-34.18-33.46,12.93,9.29,6.03s-48.35,69.08-91.58,43.13"/> <path class="cls-3" d="M182.89,344.15c24.37,6.98,53.76-3.74,69.13-26.91l3.88,4.21,2.58-21.44-22.46,5.65,6.83,4.9c-21.34,23.16-36.86,29.19-59.96,33.59"/> </g> </svg>